<svg xmlns="http://www.w3.org/2000/svg" width="128" height="128" viewBox="0 0 128 128">
  <path id="Exclusion_1" data-name="Exclusion 1" d="M120,128H8a8.009,8.009,0,0,1-8-8V8A8.009,8.009,0,0,1,8,0H120a8.009,8.009,0,0,1,8,8V120A8.009,8.009,0,0,1,120,128ZM31.928,67.526a3.567,3.567,0,0,0-3.563,3.563v30.284a3.567,3.567,0,0,0,3.563,3.563h64.13a3.567,3.567,0,0,0,3.563-3.563V71.089a3.563,3.563,0,1,0-7.126,0V97.81H78.243V78.215a3.567,3.567,0,0,0-3.562-3.563H53.3a3.567,3.567,0,0,0-3.563,3.563V97.81H35.49V71.089A3.567,3.567,0,0,0,31.928,67.526ZM63.992,23a3.557,3.557,0,0,0-2.387.918L24.2,57.765a3.583,3.583,0,0,0,4.774,5.344L63.993,31.364,99.015,63.038a3.589,3.589,0,0,0,4.792-5.344l-.018.071L66.38,23.918A3.557,3.557,0,0,0,63.992,23ZM71.118,97.81H56.867V81.778H71.118V97.809Z"/>
</svg>
